# xmcd
#
# Track frame offsets:
#	182
#	5112
#	18962
#	24577
#	31705
#	36912
#	47845
#	52600
#	59052
#	63822
#	71037
#	83120
#	91695
#	94402
#	97115
#	98842
#	101270
#	103722
#	106222
#	108235
#	110047
#	113250
#	117052
#	123272
#	127182
#	135450
#	152595
#	163302
#	172335
#	186795
#	195742
#	205950
#	214130
#	227140
#	234850
#	245277
#	259085
#	269082
#	278855
#	284100
#
# Disc length: 3908 seconds
#
# Revision: 0
# Processed by: cddbd v1.5.1PL0 Copyright (c) Steve Scherf et al.
# Submitted via: dBpowerAMP V4.0
#
DISCID=3a0f4228
DTITLE=Chico Novarro - Andrea Tenuta - Arráncame la vida - La historia del bolero
DYEAR=1900
DGENRE=Boleros
TTITLE0=Nosotros
TTITLE1=Cuatro palabras
TTITLE2=Mañana puedes irte
TTITLE3=No
TTITLE4=Y
TTITLE5=Dios en tus ojos
TTITLE6=Cuidado
TTITLE7=Nuestras vidas
TTITLE8=Voy
TTITLE9=La puerta
TTITLE10=Poupurri
TTITLE11=Mango manguey
TTITLE12=Pachito e' che
TTITLE13=Param pam pam
TTITLE14=La múcura
TTITLE15=Me lo dijo Adela
TTITLE16=La espinita
TTITLE17=Eso es el amor
TTITLE18=Ay cosita linda
TTITLE19=El tumbaito
TTITLE20=Nube gris
TTITLE21=La paloma
TTITLE22=El negrito del batey
TTITLE23=Bésame mucho
TTITLE24=La media vuelta
TTITLE25=Acompañada y sola
TTITLE26=Esta tarde vi llover
TTITLE27=Lágrimas de sangre
TTITLE28=Vicio
TTITLE29=Copa de vino
TTITLE30=Sabor a mí
TTITLE31=Solamente una vez 
TTITLE32=Desesperadamente
TTITLE33=Algo contigo
TTITLE34=Abrazame así
TTITLE35=Quiéreme mucho
TTITLE36=Así
TTITLE37=Arráncame la vida
TTITLE38=Ofertas
TTITLE39=Inolvidable
EXTD=
EXTT0=
EXTT1=
EXTT2=
EXTT3=
EXTT4=
EXTT5=
EXTT6=
EXTT7=
EXTT8=
EXTT9=
EXTT10=
EXTT11=
EXTT12=
EXTT13=
EXTT14=
EXTT15=
EXTT16=
EXTT17=
EXTT18=
EXTT19=
EXTT20=
EXTT21=
EXTT22=
EXTT23=
EXTT24=
EXTT25=
EXTT26=
EXTT27=
EXTT28=
EXTT29=
EXTT30=
EXTT31=
EXTT32=
EXTT33=
EXTT34=
EXTT35=
EXTT36=
EXTT37=
EXTT38=
EXTT39=
PLAYORDER=
